<svg version="1.1" viewBox="0.0 0.0 433.8530183727034 346.88188976377955" fill="none" stroke="none" stroke-linecap="square" stroke-miterlimit="10" xmlns:xlink="http://www.w3.org/1999/xlink" xmlns="http://www.w3.org/2000/svg"><clipPath id="p.0"><path d="m0 0l433.85303 0l0 346.8819l-433.85303 0l0 -346.8819z" clip-rule="nonzero"/></clipPath><g clip-path="url(#p.0)"><path fill="#000000" fill-opacity="0.0" d="m0 0l433.85303 0l0 346.8819l-433.85303 0z" fill-rule="evenodd"/><path fill="#000000" fill-opacity="0.0" d="m238.74245 177.31512l465.41736 0l0 71.08661l-465.41736 0z" fill-rule="evenodd"/><path fill="#6aa84f" d="m270.08618 211.69699l-5.765625 1.046875q-0.296875 -1.734375 -1.328125 -2.609375q-1.03125 -0.875 -2.671875 -0.875q-2.1875 0 -3.484375 1.515625q-1.2968597 1.5 -1.2968597 5.046875q0 3.9375 1.3124847 5.5625q1.328125 1.625 3.546875 1.625q1.671875 0 2.734375 -0.953125q1.0625 -0.953125 1.5 -3.265625l5.75 0.984375q-0.890625 3.953125 -3.4375 5.984375q-2.546875 2.015625 -6.8125 2.015625q-4.8437347 0 -7.7343597 -3.0625q-2.890625 -3.0625 -2.890625 -8.46875q0 -5.484375 2.890625 -8.53125q2.90625 -3.0625 7.8437347 -3.0625q4.03125 0 6.421875 1.75q2.390625 1.734375 3.421875 5.296875zm3.0827637 4.203125q0 -2.90625 1.4375 -5.640625q1.4375 -2.734375 4.078125 -4.171875q2.640625 -1.4375 5.875 -1.4375q5.03125 0 8.234375 3.265625q3.203125 3.265625 3.203125 8.234375q0 5.015625 -3.234375 8.328125q-3.234375 3.296875 -8.15625 3.296875q-3.03125 0 -5.796875 -1.375q-2.765625 -1.375 -4.203125 -4.03125q-1.4375 -2.65625 -1.4375 -6.46875zm6.0 0.3125q0 3.296875 1.5625 5.046875q1.5625 1.75 3.859375 1.75q2.28125 0 3.828125 -1.75q1.5625 -1.75 1.5625 -5.078125q0 -3.25 -1.5625 -5.0q-1.546875 -1.75 -3.828125 -1.75q-2.296875 0 -3.859375 1.75q-1.5625 1.75 -1.5625 5.03125zm41.696747 11.0625l-5.4375 0l0 -3.25q-1.34375 1.890625 -3.1875 2.828125q-1.84375 0.921875 -3.71875 0.921875q-3.8125 0 -6.53125 -3.0625q-2.71875 -3.078125 -2.71875 -8.578125q0 -5.625 2.640625 -8.546875q2.65625 -2.9375 6.6875 -2.9375q3.703125 0 6.421875 3.09375l0 -11.0l5.84375 0l0 30.53125zm-15.609375 -11.53125q0 3.53125 0.96875 5.109375q1.421875 2.296875 3.953125 2.296875q2.03125 0 3.4375 -1.71875q1.421875 -1.71875 1.421875 -5.125q0 -3.8125 -1.375 -5.484375q-1.375 -1.6875 -3.515625 -1.6875q-2.078125 0 -3.484375 1.65625q-1.40625 1.65625 -1.40625 4.953125zm34.196777 4.484375l5.828125 0.984375q-1.125 3.203125 -3.5625 4.890625q-2.421875 1.671875 -6.0625 1.671875q-5.765625 0 -8.53125 -3.765625q-2.1875 -3.03125 -2.1875 -7.625q0 -5.5 2.875 -8.609375q2.875 -3.125 7.265625 -3.125q4.9375 0 7.78125 3.265625q2.859375 3.265625 2.734375 9.984375l-14.65625 0q0.0625 2.609375 1.40625 4.0625q1.359375 1.4375 3.375 1.4375q1.375 0 2.3125 -0.75q0.9375 -0.75 1.421875 -2.421875zm0.328125 -5.90625q-0.0625 -2.546875 -1.3125 -3.859375q-1.25 -1.328125 -3.046875 -1.328125q-1.90625 0 -3.15625 1.390625q-1.25 1.40625 -1.234375 3.796875l8.75 0zm26.559021 12.953125l-7.0 -22.125l5.6875 0l4.140625 14.5l3.8125 -14.5l5.640625 0l3.6875 14.5l4.234375 -14.5l5.765625 0l-7.09375 22.125l-5.625 0l-3.8125 -14.21875l-3.75 14.21875l-5.6875 0zm29.054382 -25.125l0 -5.40625l5.859375 0l0 5.40625l-5.859375 0zm0 25.125l0 -22.125l5.859375 0l0 22.125l-5.859375 0zm11.851288 0l0 -30.53125l5.859375 0l0 30.53125l-5.859375 0zm11.851257 0l0 -30.53125l5.859375 0l0 30.53125l-5.859375 0z" fill-rule="nonzero"/><path fill="#000000" fill-opacity="0.0" d="m243.03734 263.36078c-9.414612 -21.322678 -27.794235 -37.945236 -46.286957 -50.87526c-10.748199 -7.5150604 -20.218887 -21.439926 -32.879868 -21.43602c-12.136475 0.003753662 -19.191086 15.29834 -28.543015 23.27687c-24.80204 21.159653 -50.548386 42.96135 -67.57598 71.63692c-6.1079025 10.286102 -7.8804474 23.163208 -13.987106 33.450165" fill-rule="evenodd"/><path stroke="#134f5c" stroke-width="8.0" stroke-linejoin="round" stroke-linecap="butt" d="m243.03734 263.36078c-9.414612 -21.322678 -27.794235 -37.945236 -46.286957 -50.87526c-10.748199 -7.5150604 -20.218887 -21.439926 -32.879868 -21.43602c-12.136475 0.003753662 -19.191086 15.29834 -28.543015 23.27687c-24.80204 21.159653 -50.548386 42.96135 -67.57598 71.63692c-6.1079025 10.286102 -7.8804474 23.163208 -13.987106 33.450165" fill-rule="evenodd"/><path fill="#000000" fill-opacity="0.0" d="m25.40339 201.64099c21.609076 2.1886292 43.898964 -5.6793976 63.306427 -15.4384c11.279846 -5.672058 27.030067 -7.124008 33.27021 -18.105652c5.9816284 -10.526703 -2.7097015 -24.07074 -4.4467545 -36.054764c-4.6067886 -31.78254 -9.258804 -64.69574 -23.679718 -93.3855c-5.172867 -10.291193 -14.545219 -18.080757 -19.71939 -28.371296" fill-rule="evenodd"/><path stroke="#134f5c" stroke-width="8.0" stroke-linejoin="round" stroke-linecap="butt" d="m25.40339 201.64099c21.609076 2.1886292 43.898964 -5.6793976 63.306427 -15.4384c11.279846 -5.672058 27.030067 -7.124008 33.27021 -18.105652c5.9816284 -10.526703 -2.7097015 -24.07074 -4.4467545 -36.054764c-4.6067886 -31.78254 -9.258804 -64.69574 -23.679718 -93.3855c-5.172867 -10.291193 -14.545219 -18.080757 -19.71939 -28.371296" fill-rule="evenodd"/><path fill="#000000" fill-opacity="0.0" d="m149.24959 42.187756c-5.9050446 20.914268 -2.0320282 44.244663 4.202194 65.062805c3.623413 12.099747 2.317978 27.872353 12.041168 35.927284c9.320389 7.721237 24.15718 1.507019 36.251602 1.875c32.075302 0.9758911 65.2711 2.103424 96.00667 -7.1284637c11.025055 -3.3115387 20.317383 -11.195473 31.34201 -14.508408" fill-rule="evenodd"/><path stroke="#134f5c" stroke-width="8.0" stroke-linejoin="round" stroke-linecap="butt" d="m149.24959 42.187756c-5.9050446 20.914268 -2.0320282 44.244663 4.202194 65.062805c3.623413 12.099747 2.317978 27.872353 12.041168 35.927284c9.320389 7.721237 24.15718 1.507019 36.251602 1.875c32.075302 0.9758911 65.2711 2.103424 96.00667 -7.1284637c11.025055 -3.3115387 20.317383 -11.195473 31.34201 -14.508408" fill-rule="evenodd"/></g></svg>